<?xml version="1.0" encoding="utf-8"?>
<!-- Generator: Adobe Illustrator 19.0.0, SVG Export Plug-In . SVG Version: 6.00 Build 0)  -->
<svg version="1.1" id="layer" xmlns="http://www.w3.org/2000/svg" xmlns:xlink="http://www.w3.org/1999/xlink" x="0px" y="0px"
	 viewBox="-153 -46 652 652" style="enable-background:new -153 -46 652 652;" xml:space="preserve">
<path d="M61.9,258.2c0-10.8-10.5-22.2-28.6-22.2c-20.3,0-42.7,14.9-46.1,44.7c-3.5,30.1,15.2,43.4,34.1,43.4S50,316.8,60.1,307
	c-8.7-10.9-19.9-5.9-22-4.8c-2.4,1.2-5.4,2.8-11.7,2.8c-7.3,0-14.7-3.3-14.7-16.9C58.3,283.6,61.9,269,61.9,258.2z M38.8,260
	c-0.3,3.3-1.6,9.1-25.2,12.2c5-17.7,14.5-19,18.9-19C36.5,253.2,39.1,256.4,38.8,260z M-40.2,262.9c0,0-10,31.5-10.8,34.1
	c-0.3-2.7-7.6-59.2-7.6-59.2c-17.1,0-26.2,12.2-31,25c0,0-12.2,31.5-13.2,34.2c-0.1-2.4-1.9-33.8-1.9-33.8
	c-1-15.7-15.4-25.3-27.1-25.3l14.1,85.6c17.9-0.1,27.5-12.2,32.6-25c0,0,10.8-27.8,11.2-29.1c0.1,1.2,7.7,54.1,7.7,54.1
	c18,0,27.6-11.4,32.8-23.8l25.2-61.8C-26,237.9-35.4,250-40.2,262.9z M127.8,235.9c-11.1,0-19.5,6-26.6,14.8v-0.1l6.4-51.4
	c-14.7,0-26.6,12.8-28.9,31.8l-11.1,91.8c8.5,0,17.4-2.4,22.3-8.7c4.3,5.6,10.8,10,20.3,10c24.8,0,41.8-28.8,41.8-55.8
	C151.7,243.7,139.8,235.9,127.8,235.9z M125.5,280c-2.6,15.1-11,25.3-19.1,25.3c-8.2,0-11.7-3.6-11.7-3.6
	c1.6-13.2,2.5-21.3,5.5-28.3c3-7,10-18.1,17.4-18.1C124.8,255.3,128.1,264.9,125.5,280z M213.8,237.9h-17.3l0.1-0.9
	c1.2-11.3,3.9-17.2,12.7-18.2c6-0.6,8.7-3.7,9.4-7.1c0.5-2.7,2.2-12,2.2-12c-34.7-0.2-45.7,14.8-48.5,37.6l-0.1,0.5h-0.4
	c-5.6,0-11.9,6.4-12.9,14.5l-0.4,3h11.6l-9.7,80.3l-3,14.4c0.4,0,0.8,0.1,1.2,0.1c16.3-0.6,26.6-13.4,28.9-32.1l7.6-62.7h5.4
	c5.3,0,11.6-5.3,12.7-14.3L213.8,237.9z M303.7,236.4c-20,0-38.8,14.7-44.6,37.8s3,50.4,32.4,50.4c29.3,0,46.2-28.4,46.2-52.1
	C337.7,248.9,321.8,236.4,303.7,236.4z M311.8,279.3c-1,10.5-5.6,26.4-18.3,26.4c-12.7,0-10.9-18.6-9.6-27.4
	c1.3-9.4,6.6-22.9,18-22.9C312,255.4,313,267.5,311.8,279.3z M436.4,262.9c0,0-10,31.5-10.8,34.1c-0.3-2.7-7.6-59.2-7.6-59.2
	c-17.1,0-26.2,12.2-31,25c0,0-12.2,31.5-13.2,34.2c-0.1-2.4-1.9-33.8-1.9-33.8c-1-15.7-15.4-25.3-27.1-25.3l14,85.6
	c17.9-0.1,27.5-12.2,32.6-25c0,0,10.8-27.8,11.1-29.1c0.1,1.2,7.7,54.1,7.7,54.1c18,0,27.6-11.4,32.8-23.8l25.2-61.8
	C450.5,237.9,441.1,250,436.4,262.9z M230.1,199.7l-14.5,117.4l0,0l-3,14.5c0.4,0,0.8,0.1,1.2,0.1l0,0c15.7-0.2,26.8-14,28.9-31.3
	L251,233C253.6,212.5,241.3,199.7,230.1,199.7z"/>
</svg>
